/* XPM */
static char * D:\BitCoins\BeaverCoin\BeaverCoin\Wallet\xpm\bitcoin32_xpm[] = {
"32 32 764 2",
"  	c None",
". 	c #AF9D82",
"+ 	c #C3B598",
"@ 	c #D1C4A6",
"# 	c #D7C9AB",
"$ 	c #DCCDAD",
"% 	c #D7C7A6",
"& 	c #CAB999",
"* 	c #AF9C7D",
"= 	c #AC9473",
"- 	c #D1B693",
"; 	c #CDB493",
"> 	c #CEC0A2",
", 	c #DFD6B6",
"' 	c #E0D6B7",
") 	c #DFD6B8",
"! 	c #E4D9BA",
"~ 	c #ECDFBC",
"{ 	c #E8DCB7",
"] 	c #D3C1A0",
"^ 	c #C5A882",
"/ 	c #BF9F73",
"( 	c #9B8056",
"_ 	c #91795D",
": 	c #DAB88E",
"< 	c #E9C397",
"[ 	c #EDD2B1",
"} 	c #F4E2C4",
"| 	c #F7EBC9",
"1 	c #FCF6D1",
"2 	c #FCF6D3",
"3 	c #FCF6D6",
"4 	c #FFF9DA",
"5 	c #FDFADB",
"6 	c #FFFAD8",
"7 	c #FBEDCB",
"8 	c #F0D3AF",
"9 	c #E1BD8E",
"0 	c #C3A271",
"a 	c #AC8D5C",
"b 	c #836B3F",
"c 	c #BB9F79",
"d 	c #E7C08F",
"e 	c #ECC799",
"f 	c #F7D7B0",
"g 	c #FAE1C0",
"h 	c #FAE9CA",
"i 	c #FCF3D0",
"j 	c #F7F2D6",
"k 	c #FAF5DE",
"l 	c #FEF9DD",
"m 	c #FCF7DA",
"n 	c #FFFBDC",
"o 	c #FDF6D4",
"p 	c #FAF1CB",
"q 	c #FDE3C0",
"r 	c #FCD9AB",
"s 	c #E6C594",
"t 	c #BF9D67",
"u 	c #B08E59",
"v 	c #937747",
"w 	c #BFA27A",
"x 	c #E0BC8C",
"y 	c #E3C59D",
"z 	c #E7CBA5",
"A 	c #F1D1A9",
"B 	c #F7DAB5",
"C 	c #F7E5C7",
"D 	c #EEE9D6",
"E 	c #B0A698",
"F 	c #997F59",
"G 	c #BCAA92",
"H 	c #CAB8A7",
"I 	c #C7BAA8",
"J 	c #D5CFBD",
"K 	c #F4EFD8",
"L 	c #F9ECD4",
"M 	c #C9B498",
"N 	c #B49D7C",
"O 	c #C5AF8D",
"P 	c #B79760",
"Q 	c #A68551",
"R 	c #957648",
"S 	c #B2966F",
"T 	c #D5B383",
"U 	c #D7BE95",
"V 	c #D6BD97",
"W 	c #DBC097",
"X 	c #EACCA2",
"Y 	c #FAE3C7",
"Z 	c #D2BFAE",
"` 	c #866D52",
" .	c #7F5E2E",
"..	c #996F28",
"+.	c #90682E",
"@.	c #87653B",
"#.	c #956E2F",
"$.	c #977135",
"%.	c #9C8468",
"&.	c #A38D6C",
"*.	c #936C2D",
"=.	c #8F6620",
"-.	c #A29176",
";.	c #C6AD84",
">.	c #A4844C",
",.	c #9E7E4B",
"'.	c #8F7244",
").	c #907857",
"!.	c #C6A578",
"~.	c #C5AA80",
"{.	c #CBB289",
"].	c #CCB287",
"^.	c #DBC29A",
"/.	c #DBCAB5",
"(.	c #B19682",
"_.	c #8A674C",
":.	c #664A29",
"<.	c #906A2E",
"[.	c #A97F35",
"}.	c #9F7734",
"|.	c #A3782F",
"1.	c #9A7337",
"2.	c #9A7334",
"3.	c #986F2C",
"4.	c #87632B",
"5.	c #926B2B",
"6.	c #A2762A",
"7.	c #AA936E",
"8.	c #BFA474",
"9.	c #A58851",
"0.	c #967B48",
"a.	c #947747",
"b.	c #7E663C",
"c.	c #59472F",
"d.	c #B09166",
"e.	c #B3976B",
"f.	c #B89F72",
"g.	c #BDA274",
"h.	c #CCB387",
"i.	c #C3B5A1",
"j.	c #8A6C3E",
"k.	c #825F2D",
"l.	c #7C5A2D",
"m.	c #916929",
"n.	c #A17732",
"o.	c #A77D34",
"p.	c #A67A2E",
"q.	c #9D7F50",
"r.	c #E3E5E7",
"s.	c #E7E4E1",
"t.	c #9C7A48",
"u.	c #9A7435",
"v.	c #9D742F",
"w.	c #88632A",
"x.	c #B39F86",
"y.	c #C4AB7D",
"z.	c #9F844E",
"A.	c #937A49",
"B.	c #8B7343",
"C.	c #8E7445",
"D.	c #58472A",
"E.	c #8A724D",
"F.	c #A28659",
"G.	c #A3885B",
"H.	c #AA8E60",
"I.	c #AF9566",
"J.	c #D4C2AA",
"K.	c #8E735A",
"L.	c #89601A",
"M.	c #89642B",
"N.	c #9A7A49",
"O.	c #BAA37E",
"P.	c #A47F43",
"Q.	c #A67B31",
"R.	c #9C7027",
"S.	c #C1B7A9",
"T.	c #BFB4B0",
"U.	c #D4CDCD",
"V.	c #C3B29A",
"W.	c #9C712D",
"X.	c #936C2C",
"Y.	c #6F4F30",
"Z.	c #A38067",
"`.	c #CBB8A1",
" +	c #A58F5B",
".+	c #917A48",
"++	c #8B7544",
"@+	c #877242",
"#+	c #7E693F",
"$+	c #4E3C26",
"%+	c #896E48",
"&+	c #886D45",
"*+	c #90754A",
"=+	c #8F7547",
"-+	c #BAA684",
";+	c #B3967F",
">+	c #8E6B4D",
",+	c #A8967D",
"'+	c #896734",
")+	c #C9C0B4",
"!+	c #D8D3D5",
"~+	c #AB9984",
"{+	c #A4792C",
"]+	c #9D7430",
"^+	c #D0CAC5",
"/+	c #6D554B",
"(+	c #806E69",
"_+	c #CCBDA5",
":+	c #9D7128",
"<+	c #A1752D",
"[+	c #957D5B",
"}+	c #94755A",
"|+	c #AA8970",
"1+	c #BFAF91",
"2+	c #927D49",
"3+	c #8B7847",
"4+	c #826F41",
"5+	c #826E42",
"6+	c #53462A",
"7+	c #634E31",
"8+	c #795F3C",
"9+	c #755C39",
"0+	c #7B613A",
"a+	c #886E46",
"b+	c #C0AB96",
"c+	c #8D6545",
"d+	c #C4B4A5",
"e+	c #FFFFFF",
"f+	c #917346",
"g+	c #D7D1C8",
"h+	c #968682",
"i+	c #7F695B",
"j+	c #916731",
"k+	c #896026",
"l+	c #BDAF9E",
"m+	c #846E60",
"n+	c #9F8F84",
"o+	c #AB8D5D",
"p+	c #9F7228",
"q+	c #AA9471",
"r+	c #D7CEC8",
"s+	c #875F3E",
"t+	c #BDA590",
"u+	c #A18F61",
"v+	c #847343",
"w+	c #816F41",
"x+	c #74633D",
"y+	c #654F30",
"z+	c #614A2C",
"A+	c #654E2F",
"B+	c #644B2A",
"C+	c #937D60",
"D+	c #AE9077",
"E+	c #8D6A4D",
"F+	c #FBFBFB",
"G+	c #EBECEC",
"H+	c #967746",
"I+	c #BFAC8B",
"J+	c #A79790",
"K+	c #724328",
"L+	c #6B3719",
"M+	c #562810",
"N+	c #967342",
"O+	c #F9DD9A",
"P+	c #E9CA8A",
"Q+	c #B48D46",
"R+	c #A57A32",
"S+	c #916725",
"T+	c #8D7859",
"U+	c #F6F8F9",
"V+	c #9F836A",
"W+	c #A38168",
"X+	c #B4A484",
"Y+	c #8F7B45",
"Z+	c #877343",
"`+	c #7A683C",
" @	c #7B6A41",
".@	c #3E2D1B",
"+@	c #584328",
"@@	c #5A4127",
"#@	c #5D4428",
"$@	c #584021",
"%@	c #A99782",
"&@	c #9A7558",
"*@	c #BFAD9E",
"=@	c #D4CEC5",
"-@	c #93713B",
";@	c #B39157",
">@	c #F4D99A",
",@	c #C0A06A",
"'@	c #5E3013",
")@	c #55240A",
"!@	c #60371C",
"~@	c #D8BA7E",
"{@	c #F6DA97",
"]@	c #FDE19B",
"^@	c #E1BF7A",
"/@	c #A27831",
"(@	c #A07731",
"_@	c #8C6426",
":@	c #9A8563",
"<@	c #C6B9AE",
"[@	c #916A4D",
"}@	c #BDAC95",
"|@	c #8E7847",
"1@	c #836E3F",
"2@	c #77653A",
"3@	c #75643C",
"4@	c #52482B",
"5@	c #46341F",
"6@	c #523B23",
"7@	c #583E23",
"8@	c #573E24",
"9@	c #5B4327",
"0@	c #B4A08D",
"a@	c #906A4A",
"b@	c #D1C8C2",
"c@	c #987E55",
"d@	c #A17224",
"e@	c #C8A86C",
"f@	c #FDE19F",
"g@	c #FEE19C",
"h@	c #C9AA72",
"i@	c #9E7C4E",
"j@	c #E2C585",
"k@	c #FFE19C",
"l@	c #F9DF98",
"m@	c #E1BC7E",
"n@	c #AA7F44",
"o@	c #A57B32",
"p@	c #A87E35",
"q@	c #9D722D",
"r@	c #765A2E",
"s@	c #AEA397",
"t@	c #916B4D",
"u@	c #B59F88",
"v@	c #89754B",
"w@	c #766338",
"x@	c #6B5C35",
"y@	c #705F38",
"z@	c #615531",
"A@	c #493520",
"B@	c #533920",
"C@	c #573B23",
"D@	c #563A20",
"E@	c #60462D",
"F@	c #B29985",
"G@	c #8F6A4A",
"H@	c #AEA29B",
"I@	c #8A6E46",
"J@	c #AA7E32",
"K@	c #A77F39",
"L@	c #CFAD69",
"M@	c #E8CA8C",
"N@	c #EDD398",
"O@	c #E6CF9C",
"P@	c #F3DA9E",
"Q@	c #E7CF96",
"R@	c #B17B52",
"S@	c #7E3123",
"T@	c #94662B",
"U@	c #A87F35",
"V@	c #9F742D",
"W@	c #907345",
"X@	c #C0BAB6",
"Y@	c #896445",
"Z@	c #AB9179",
"`@	c #7A6745",
" #	c #64522E",
".#	c #655733",
"+#	c #6A5B35",
"@#	c #675933",
"##	c #45311C",
"$#	c #553A20",
"%#	c #573A21",
"&#	c #56391F",
"*#	c #5E442D",
"=#	c #A98F78",
"-#	c #785230",
";#	c #593118",
">#	c #6A4C31",
",#	c #A27C3B",
"'#	c #A77C32",
")#	c #9F7226",
"!#	c #A68F69",
"~#	c #F3F7F8",
"{#	c #E2E7F0",
"]#	c #F6F6F4",
"^#	c #C5B7BC",
"/#	c #6C0F14",
"(#	c #824023",
"_#	c #A88135",
":#	c #A77C34",
"<#	c #89632A",
"[#	c #593918",
"}#	c #5A341A",
"|#	c #744B28",
"1#	c #9F846B",
"2#	c #6B5C40",
"3#	c #594A2A",
"4#	c #605330",
"5#	c #675934",
"6#	c #685A34",
"7#	c #4B361F",
"8#	c #56381E",
"9#	c #5D3C21",
"0#	c #5A391F",
"a#	c #5C3E25",
"b#	c #A9927E",
"c#	c #643C1F",
"d#	c #5E2F11",
"e#	c #553728",
"f#	c #84663A",
"g#	c #AB7F33",
"h#	c #A87D33",
"i#	c #956E32",
"j#	c #CDCDD0",
"k#	c #F9FFFF",
"l#	c #9C656B",
"m#	c #762016",
"n#	c #9B7131",
"o#	c #A87E34",
"p#	c #9E7531",
"q#	c #68451E",
"r#	c #613114",
"s#	c #5E3012",
"t#	c #6F4520",
"u#	c #A0876F",
"v#	c #61533B",
"w#	c #564829",
"x#	c #6C5E36",
"y#	c #6A5E36",
"z#	c #49341E",
"A#	c #5A391E",
"B#	c #5E3C20",
"C#	c #56351A",
"D#	c #A38E7B",
"E#	c #6A4329",
"F#	c #663414",
"G#	c #552B12",
"H#	c #8D7A6B",
"I#	c #9E783A",
"J#	c #986E2A",
"K#	c #B05F58",
"L#	c #DCB3BC",
"M#	c #DC8D93",
"N#	c #C94037",
"O#	c #9A632F",
"P#	c #A78135",
"Q#	c #AA7F36",
"R#	c #9F742E",
"S#	c #714E21",
"T#	c #572F15",
"U#	c #623315",
"V#	c #633616",
"W#	c #784F2B",
"X#	c #A79480",
"Y#	c #56472D",
"Z#	c #5A4D2C",
"`#	c #695D35",
" $	c #75663B",
".$	c #6E6239",
"+$	c #412E1B",
"@$	c #5A3B21",
"#$	c #5C391E",
"$$	c #603C21",
"%$	c #573317",
"&$	c #8A705A",
"*$	c #7B5C46",
"=$	c #612E0E",
"-$	c #58280B",
";$	c #9A8A7D",
">$	c #C1B8AB",
",$	c #9B7639",
"'$	c #A47C31",
")$	c #AF6131",
"!$	c #BB9186",
"~$	c #B97864",
"{$	c #A9682E",
"]$	c #A68035",
"^$	c #8E6728",
"/$	c #7C6849",
"($	c #6A4936",
"_$	c #643212",
":$	c #613215",
"<$	c #663A16",
"[$	c #8A6645",
"}$	c #978875",
"|$	c #504022",
"1$	c #625330",
"2$	c #73663A",
"3$	c #817041",
"4$	c #695E37",
"5$	c #5B3C21",
"6$	c #603D21",
"7$	c #623E21",
"8$	c #5E3A1E",
"9$	c #6A4A30",
"0$	c #9C8470",
"a$	c #583014",
"b$	c #65401B",
"c$	c #8E6828",
"d$	c #B4A68F",
"e$	c #826C4B",
"f$	c #835F28",
"g$	c #A27D33",
"h$	c #9D772F",
"i$	c #9D7830",
"j$	c #A67F34",
"k$	c #9F7732",
"l$	c #846129",
"m$	c #835F27",
"n$	c #8E6F3E",
"o$	c #664426",
"p$	c #5A2E13",
"q$	c #5C3215",
"r$	c #6A3F1A",
"s$	c #9D8067",
"t$	c #73634A",
"u$	c #574728",
"v$	c #675732",
"w$	c #77683C",
"x$	c #867244",
"y$	c #514829",
"z$	c #583A21",
"A$	c #664023",
"B$	c #613D21",
"C$	c #5B361A",
"D$	c #9D836F",
"E$	c #806045",
"F$	c #7F5B23",
"G$	c #B08437",
"H$	c #996F29",
"I$	c #85612B",
"J$	c #997439",
"K$	c #A47A30",
"L$	c #A2782F",
"M$	c #A57B34",
"N$	c #A0762F",
"O$	c #A57C34",
"P$	c #AC8136",
"Q$	c #AD8033",
"R$	c #9E7730",
"S$	c #69461E",
"T$	c #603616",
"U$	c #815A39",
"V$	c #AA9680",
"W$	c #5F4929",
"X$	c #5F4E2D",
"Y$	c #6A5A34",
"Z$	c #79683C",
"`$	c #7E6C40",
" %	c #4C3520",
".%	c #6F4727",
"+%	c #664022",
"@%	c #6B4425",
"#%	c #6A4323",
"$%	c #6E482B",
"%%	c #AC9482",
"&%	c #76552D",
"*%	c #A3792F",
"=%	c #A67C34",
"-%	c #906D37",
";%	c #A87D34",
">%	c #B38C46",
",%	c #DBBB79",
"'%	c #E6C887",
")%	c #E0C07F",
"!%	c #BF9953",
"~%	c #A37A32",
"{%	c #9B7431",
"]%	c #977132",
"^%	c #9D7635",
"/%	c #6B4924",
"(%	c #B1957C",
"_%	c #93724C",
":%	c #634929",
"<%	c #604F2E",
"[%	c #695A33",
"}%	c #7B663B",
"|%	c #70633A",
"1%	c #6D4827",
"2%	c #784C28",
"3%	c #6F4525",
"4%	c #744927",
"5%	c #6C411F",
"6%	c #856144",
"7%	c #A48E7C",
"8%	c #7B5A2C",
"9%	c #714E1F",
"0%	c #8A632C",
"a%	c #AD843A",
"b%	c #F1D391",
"c%	c #FFE7A4",
"d%	c #FCE09D",
"e%	c #FFE7A3",
"f%	c #DFC386",
"g%	c #6E4420",
"h%	c #613B1B",
"i%	c #977235",
"j%	c #A37B36",
"k%	c #AA7E31",
"l%	c #C0A688",
"m%	c #865E30",
"n%	c #684F2F",
"o%	c #5C4A2B",
"p%	c #675531",
"q%	c #806A3E",
"r%	c #4F3720",
"s%	c #8E5F33",
"t%	c #7D4F29",
"u%	c #81522C",
"v%	c #7E502A",
"w%	c #734620",
"x%	c #926C4D",
"y%	c #A9917E",
"z%	c #7F5A3F",
"A%	c #693C16",
"B%	c #845C2B",
"C%	c #CAAA71",
"D%	c #E6C889",
"E%	c #F1D493",
"F%	c #F8DD9A",
"G%	c #A48357",
"H%	c #56270D",
"I%	c #593214",
"J%	c #886223",
"K%	c #9A7029",
"L%	c #916A26",
"M%	c #998463",
"N%	c #BA9871",
"O%	c #845E32",
"P%	c #674E2D",
"Q%	c #5D4A2B",
"R%	c #785F38",
"S%	c #675834",
"T%	c #78522F",
"U%	c #A4713F",
"V%	c #935E2F",
"W%	c #8E5C2F",
"X%	c #915F32",
"Y%	c #88572A",
"Z%	c #946941",
"`%	c #B7987C",
" &	c #A4856B",
".&	c #7E583C",
"+&	c #663B1A",
"@&	c #6D421C",
"#&	c #784E26",
"$&	c #794F26",
"%&	c #693D18",
"&&	c #623817",
"*&	c #6E4A2E",
"=&	c #978068",
"-&	c #AD9676",
";&	c #B09A7C",
">&	c #CFB088",
",&	c #A97C45",
"'&	c #876137",
")&	c #644A2B",
"!&	c #765A36",
"~&	c #7C663C",
"{&	c #9D7042",
"]&	c #B88650",
"^&	c #AC753C",
"/&	c #A8733D",
"(&	c #A7733E",
"_&	c #A2703B",
":&	c #A1703A",
"<&	c #C59C69",
"[&	c #D7B995",
"}&	c #C4A686",
"|&	c #AF8F74",
"1&	c #A4866E",
"2&	c #A3866D",
"3&	c #AE9279",
"4&	c #C6AF96",
"5&	c #EAD9C3",
"6&	c #FFE8C9",
"7&	c #FCD2A0",
"8&	c #E8BB82",
"9&	c #CB9C5E",
"0&	c #AC8149",
"a&	c #8D6639",
"b&	c #8A673E",
"c&	c #8A6E42",
"d&	c #AC8051",
"e&	c #D0A168",
"f&	c #C59153",
"g&	c #C69252",
"h&	c #C29053",
"i&	c #C49357",
"j&	c #C9995B",
"k&	c #D5A76A",
"l&	c #F0C48B",
"m&	c #FFD8AB",
"n&	c #FFE5C3",
"o&	c #FFE9C9",
"p&	c #FFEECE",
"q&	c #FFEAC7",
"r&	c #FBE1BC",
"s&	c #F9D5AA",
"t&	c #F2C793",
"u&	c #E0B67C",
"v&	c #CFA367",
"w&	c #B88B51",
"x&	c #B08753",
"y&	c #947547",
"z&	c #B18758",
"A&	c #DDB380",
"B&	c #DDB076",
"C&	c #DBAB6E",
"D&	c #DEAF73",
"E&	c #E1B47A",
"F&	c #F1C58F",
"G&	c #F9D1A2",
"H&	c #FCDAB3",
"I&	c #F9DBB6",
"J&	c #F9DBB7",
"K&	c #F8DCB8",
"L&	c #F5D7B1",
"M&	c #F9D6AE",
"N&	c #F8CE9B",
"O&	c #E7BD84",
"P&	c #D9AF75",
"Q&	c #CEA46C",
"R&	c #947549",
"S&	c #8E6C43",
"T&	c #D5AE80",
"U&	c #E7C191",
"V&	c #EEC592",
"W&	c #EEC490",
"X&	c #F9D09F",
"Y&	c #FCD4A5",
"Z&	c #FEDFBC",
"`&	c #FADEBA",
" *	c #FBE1BE",
".*	c #F3D5B0",
"+*	c #F3CEA2",
"@*	c #EBC38F",
"#*	c #CEA773",
"$*	c #775C39",
"%*	c #98774F",
"&*	c #D3B185",
"**	c #E5C398",
"=*	c #EBCBA3",
"-*	c #F1D4B0",
";*	c #F1D6B3",
">*	c #EFD4B1",
",*	c #EED4AF",
"'*	c #F0D7B2",
")*	c #EED6B2",
"!*	c #E7CFAA",
"~*	c #E6C9A0",
"{*	c #DBBB8F",
"]*	c #A08057",
"^*	c #A88960",
"/*	c #CEAE83",
"(*	c #E2C39A",
"_*	c #E9CCA5",
":*	c #E9CEA7",
"<*	c #E3C9A3",
"[*	c #D7BE9A",
"}*	c #BCA480",
"                                                                ",
"                        . + @ # $ % & *                         ",
"                  = - ; > , ' ) ! ~ { ] ^ / (                   ",
"              _ : < [ } | 1 2 3 4 5 6 7 8 9 0 a b               ",
"            c d e f g h i j k l m n o p q r s t u v             ",
"          w x y z A B C D E F G H I J K L M N O P Q R           ",
"        S T U V W X Y Z `  ...+.@.#.$.%.&.*.=.-.;.>.,.'.        ",
"      ).!.~.{.].^./.(._.:.<.[.}.|.1.2.3.4.5.6.7.8.9.0.a.b.      ",
"    c.d.e.f.g.h.i.j.k.l.m.n.o.p.q.r.s.t.u.v.w.x.y.z.A.B.C.D.    ",
"    E.F.G.H.I.J.K.L.M.N.O.P.Q.R.S.T.U.V.W.X.Y.Z.`. +.+++@+#+    ",
"  $+%+&+*+=+-+;+>+,+'+)+!+~+{+]+^+/+(+_+:+<+[+}+|+1+2+3+4+5+6+  ",
"  7+8+9+0+a+b+c+d+e+f+g+h+i+j+k+l+m+n+o+p.p+q+r+s+t+u+3+v+w+x+  ",
"  y+z+A+B+C+D+E+F+G+H+I+J+K+L+M+N+O+P+Q+R+S+T+U+V+W+X+Y+Z+`+ @  ",
".@+@@@#@$@%@&@*@=@-@;@>@,@'@)@!@~@{@]@^@/@(@_@:@<@[@}@|@1@2@3@4@",
"5@6@7@8@9@0@a@b@c@d@e@f@g@h@i@j@k@l@m@n@o@p@q@r@s@t@u@v@w@x@y@z@",
"A@B@C@D@E@F@G@H@I@J@K@L@M@N@O@P@Q@R@S@T@U@o.V@W@X@Y@Z@`@ #.#+#@#",
"##$#%#&#*#=#-#;#>#,#'#)#!#~#{#]#^#/#(#_#o.:#<#[#}#|#1#2#3#4#5#6#",
"7#8#9#0#a#b#c#d#e#f#g#h#i#j#e+k#l#m#n#U@o#p#q#r#s#t#u#v#w#z@x#y#",
"z#&#A#B#C#D#E#F#G#H#I#J@J#K#L#M#N#O#P#Q#R#S#T#U#V#W#X#Y#Z#`# $.$",
"+$@$#$$$%$&$*$=$-$;$>$,$'$)$!$~${$]$:#^$/$($_$:$<$[$}$|$1$2$3$4$",
"  5$6$7$8$9$0$a$b$c$d$e$f$g$h$i$j$k$l$m$n$o$p$q$r$s$t$u$v$w$x$y$",
"  z$A$B$A$C$D$E$F$G$H$I$J$K$L$M$/@N$O$P$Q$R$S$T$U$V$W$X$Y$Z$`$  ",
"   %.%+%@%#%$%%%&%*%=%-%;%>%,%'%)%!%~%{%]%^%{%/%(%_%:%<%[%}%|%  ",
"    1%2%3%4%5%6%7%8%9%0%a%b%c%d%e%f%g%h%i%j%k%a.l%m%n%o%p%q%    ",
"    r%s%t%u%v%w%x%y%z%A%B%C%D%E%F%G%H%I%J%K%L%M%N%O%P%Q%R%S%    ",
"      T%U%V%W%X%Y%Z%`% &.&+&@&#&$&%&&&*&=&-&;&>&,&'&)&!&~&      ",
"        {&]&^&/&(&_&:&<&[&}&|&1&2&3&4&5&6&7&8&9&0&a&b&c&        ",
"          d&e&f&g&h&i&j&k&l&m&n&o&p&q&r&s&t&u&v&w&x&y&          ",
"            z&A&B&C&D&E&8&F&G&H&I&J&K&L&M&N&O&P&Q&R&            ",
"              S&T&U&V&W&X&Y&M&Z&J&`&`& *.*+*@*#*$*              ",
"                  %*&***=*-*;*>*,*'*)*!*~*{*]*                  ",
"                        ^*/*(*_*:*<*[*}*                        "};
