/* XPM */
static char * D:\BitCoins\BeaverCoin\BeaverCoin\Wallet\xpm\bitcoin16_xpm[] = {
"16 16 209 2",
"  	c None",
". 	c #7C6D56",
"+ 	c #A89E84",
"@ 	c #C9C2A6",
"# 	c #D3CAAC",
"$ 	c #B3A688",
"% 	c #806C50",
"& 	c #7B6549",
"* 	c #E1C198",
"= 	c #FDE6C3",
"- 	c #FFFADC",
"; 	c #FAF7DC",
"> 	c #FEFBDD",
", 	c #FFFBDA",
"' 	c #FADDB5",
") 	c #C6A677",
"! 	c #66502E",
"~ 	c #856F53",
"{ 	c #E9C89B",
"] 	c #F2D4AC",
"^ 	c #F3DFC4",
"/ 	c #B7A78F",
"( 	c #AF9873",
"_ 	c #C3AE8C",
": 	c #CCBD9D",
"< 	c #CFBD9F",
"[ 	c #BAA27B",
"} 	c #B99A67",
"| 	c #6D5631",
"1 	c #594731",
"2 	c #CBAC7D",
"3 	c #CDB68B",
"4 	c #CBB594",
"5 	c #9A7C5D",
"6 	c #805A22",
"7 	c #9C7025",
"8 	c #A4834D",
"9 	c #A28252",
"0 	c #8B6323",
"a 	c #9F7F4C",
"b 	c #B39D72",
"c 	c #9A7D47",
"d 	c #4F3F25",
"e 	c #90764E",
"f 	c #A4895A",
"g 	c #BAA382",
"h 	c #907045",
"i 	c #937546",
"j 	c #AE9366",
"k 	c #A67E36",
"l 	c #B6ACA4",
"m 	c #BCB1A6",
"n 	c #956E2D",
"o 	c #90704E",
"p 	c #B09975",
"q 	c #907B47",
"r 	c #826E41",
"s 	c #3C2E1D",
"t 	c #765C37",
"u 	c #88714E",
"v 	c #AC9077",
"w 	c #CCC0B5",
"x 	c #B2A38E",
"y 	c #937F76",
"z 	c #8A6231",
"A 	c #A38E78",
"B 	c #AA926F",
"C 	c #9E732B",
"D 	c #A79277",
"E 	c #B09682",
"F 	c #9B895C",
"G 	c #877442",
"H 	c #473C23",
"I 	c #463520",
"J 	c #583F22",
"K 	c #81684E",
"L 	c #B29A87",
"M 	c #BBA98B",
"N 	c #CDB178",
"O 	c #9B764D",
"P 	c #6B3D1C",
"Q 	c #E6C986",
"R 	c #E7C57F",
"S 	c #9E732C",
"T 	c #9C8257",
"U 	c #A9917E",
"V 	c #9F8863",
"W 	c #7E6B3B",
"X 	c #5E5130",
"Y 	c #4B351F",
"Z 	c #52361D",
"` 	c #866B51",
" .	c #99806B",
"..	c #967236",
"+.	c #CBA55D",
"@.	c #E5CE97",
"#.	c #E5D2A0",
"$.	c #D8B486",
"%.	c #9C6538",
"&.	c #A97E33",
"*.	c #947036",
"=.	c #977F6A",
"-.	c #927A5C",
";.	c #63532F",
">.	c #665833",
",.	c #4E361F",
"'.	c #57371C",
").	c #7D6149",
"!.	c #613A21",
"~.	c #795932",
"{.	c #A27425",
"].	c #B9A58C",
"^.	c #F6F1F7",
"/.	c #955251",
"(.	c #976425",
"_.	c #A47C32",
":.	c #6A431B",
"<.	c #6B4022",
"[.	c #806B51",
"}.	c #584B2B",
"|.	c #6B5F37",
"1.	c #47301C",
"2.	c #5D381C",
"3.	c #72563E",
"4.	c #673E24",
"5.	c #7B5E4A",
"6.	c #A78D5B",
"7.	c #A46E3B",
"8.	c #C2877E",
"9.	c #AA6531",
"0.	c #9D7931",
"a.	c #77562F",
"b.	c #592B11",
"c.	c #764D2C",
"d.	c #76654C",
"e.	c #665831",
"f.	c #6D6038",
"g.	c #362315",
"h.	c #664022",
"i.	c #67452A",
"j.	c #82654E",
"k.	c #906A30",
"l.	c #997A49",
"m.	c #98712D",
"n.	c #A47D34",
"o.	c #A47D33",
"p.	c #9D7531",
"q.	c #8E6931",
"r.	c #633916",
"s.	c #8C6D51",
"t.	c #6A593A",
"u.	c #746338",
"v.	c #554A2B",
"w.	c #714927",
"x.	c #6E4220",
"y.	c #7D593E",
"z.	c #99794B",
"A.	c #8A6325",
"B.	c #B9934D",
"C.	c #F6DA94",
"D.	c #DEBE7C",
"E.	c #7F5723",
"F.	c #986E28",
"G.	c #997539",
"H.	c #9B7B59",
"I.	c #614A29",
"J.	c #736038",
"K.	c #49311B",
"L.	c #9B6738",
"M.	c #8A582B",
"N.	c #936B47",
"O.	c #9A7755",
"P.	c #AB8A61",
"Q.	c #C0A371",
"R.	c #A8875B",
"S.	c #725039",
"T.	c #A88C60",
"U.	c #B7996A",
"V.	c #997347",
"W.	c #745731",
"X.	c #534428",
"Y.	c #785634",
"Z.	c #CC975A",
"`.	c #BB864A",
" +	c #C29157",
".+	c #DEB582",
"++	c #E0BF9D",
"@+	c #E0C9AC",
"#+	c #F4E0C2",
"$+	c #F9D8B1",
"%+	c #DFB57C",
"&+	c #B58951",
"*+	c #6A5331",
"=+	c #73593A",
"-+	c #DBB17C",
";+	c #F3C78D",
">+	c #FAD09C",
",+	c #FEDCB3",
"'+	c #FDE1BC",
")+	c #FFE3BE",
"!+	c #FFDCAF",
"~+	c #DDB47D",
"{+	c #6B5536",
"]+	c #7F6B4F",
"^+	c #BBA07D",
"/+	c #D9C19C",
"(+	c #D9C4A1",
"_+	c #BDAA8A",
":+	c #86745A",
"          . + @ # $ %           ",
"      & * = - ; > , ' ) !       ",
"    ~ { ] ^ / ( _ : < [ } |     ",
"  1 2 3 4 5 6 7 8 9 0 a b c d   ",
"  e f g h i j k l m n o p q r   ",
"s t u v w x y z A B C D E F G H ",
"I J K L M N O P Q R S T U V W X ",
"Y Z `  ...+.@.#.$.%.&.*.=.-.;.>.",
",.'.).!.~.{.].^./.(._.:.<.[.}.|.",
"1.2.3.4.5.6.7.8.9.0.a.b.c.d.e.f.",
"g.h.i.j.k.l.m.n.o.p.q.r.s.t.u.v.",
"  w.x.y.z.A.B.C.D.E.F.G.H.I.J.  ",
"  K.L.M.N.O.P.Q.R.S.T.U.V.W.X.  ",
"    Y.Z.`. +.+++@+#+$+%+&+*+    ",
"      =+-+;+>+,+'+)+!+~+{+      ",
"          ]+^+/+(+_+:+          "};
