/* XPM */
static char *bitcoin__[] = {
/* columns rows colors chars-per-pixel */
"64 64 256 2",
"   c #2F1207",
".  c #36291B",
"X  c #3D331F",
"o  c #2D2217",
"O  c #3B3228",
"+  c #3D3A35",
"@  c #332920",
"#  c #761B19",
"$  c #6E1818",
"%  c #4B230D",
"&  c #592B0C",
"*  c #4E2C15",
"=  c #462B15",
"-  c #532D13",
";  c #552D15",
":  c #4A341B",
">  c #5D3214",
",  c #53361C",
"<  c #54391D",
"1  c #5A3A1E",
"2  c #573517",
"3  c #5A350D",
"4  c #77261E",
"5  c #653415",
"6  c #693616",
"7  c #663A19",
"8  c #683311",
"9  c #483725",
"0  c #543B22",
"q  c #5B3C22",
"w  c #573923",
"e  c #443E34",
"r  c #623E22",
"t  c #6E3B21",
"y  c #713525",
"u  c #541911",
"i  c #5F451F",
"p  c #6A451D",
"a  c #714A19",
"s  c #79531C",
"d  c #5B4226",
"f  c #5C4B2B",
"g  c #574529",
"h  c #5B4936",
"j  c #5D5438",
"k  c #4A4327",
"l  c #644223",
"z  c #6C4424",
"x  c #634C2D",
"c  c #674A27",
"v  c #744A26",
"b  c #744C2A",
"n  c #774A27",
"m  c #68522D",
"M  c #7C5A24",
"N  c #785528",
"B  c #644C33",
"V  c #645432",
"C  c #6B5533",
"Z  c #6B5B34",
"A  c #685838",
"S  c #735C35",
"D  c #7B5B34",
"F  c #735A39",
"G  c #785736",
"H  c #744F36",
"J  c #6C6239",
"K  c #75643B",
"L  c #7B633B",
"P  c #7C6B3D",
"I  c #746A3D",
"U  c #693C41",
"Y  c #494848",
"T  c #5B5B5A",
"R  c #5D554A",
"E  c #6A5A46",
"W  c #765C45",
"Q  c #7C535A",
"!  c #7A6644",
"~  c #796A57",
"^  c #786E48",
"/  c #636464",
"(  c #787069",
")  c #BB3C35",
"_  c #812D25",
"`  c #835B1D",
"'  c #85592A",
"]  c #855C38",
"[  c #935C32",
"{  c #804E25",
"}  c #8B6223",
"|  c #8B652B",
" . c #89642A",
".. c #936C2D",
"X. c #996E2B",
"o. c #946824",
"O. c #9D732E",
"+. c #97712E",
"@. c #886838",
"#. c #976938",
"$. c #9B7331",
"%. c #977235",
"&. c #80703F",
"*. c #A1762D",
"=. c #A5792D",
"-. c #A17732",
";. c #A67C34",
":. c #A97E34",
">. c #A5763B",
",. c #BA483A",
"<. c #C14339",
"1. c #836D43",
"2. c #896846",
"3. c #936C48",
"4. c #847342",
"5. c #8B7444",
"6. c #8C7849",
"7. c #937B4B",
"8. c #9C7C4C",
"9. c #967445",
"0. c #876C54",
"q. c #897459",
"w. c #957252",
"e. c #9D795B",
"r. c #997655",
"t. c #916A56",
"y. c #A77A45",
"u. c #AF7D4A",
"i. c #887969",
"p. c #967C64",
"a. c #927C72",
"s. c #A27E62",
"d. c #805D4B",
"f. c #F24E47",
"g. c #C67175",
"h. c #C95240",
"j. c #AC8136",
"k. c #AA8138",
"l. c #B0853A",
"z. c #96814E",
"x. c #9C8453",
"c. c #998558",
"v. c #8D824D",
"b. c #A7844A",
"n. c #B88749",
"m. c #AB8B55",
"M. c #A88A58",
"N. c #B88C55",
"B. c #B5935B",
"V. c #B19257",
"C. c #978367",
"Z. c #948775",
"A. c #8C8579",
"S. c #A68766",
"D. c #AC9266",
"F. c #B89767",
"G. c #A9947B",
"H. c #B29476",
"J. c #BCA577",
"K. c #BCA16A",
"L. c #C5985B",
"P. c #CB9455",
"I. c #C69A63",
"U. c #CAA669",
"Y. c #D4A669",
"T. c #C6A87A",
"R. c #D7AD76",
"E. c #D9B679",
"W. c #CDB379",
"Q. c #E4B77C",
"!. c #D2A05E",
"~. c #E5C47E",
"^. c #9A9287",
"/. c #988F8C",
"(. c #B49B86",
"). c #A69C96",
"_. c #AD958B",
"`. c #B8A686",
"'. c #ABA499",
"]. c #B7A898",
"[. c #ACA389",
"{. c #ACA8A3",
"}. c #BAB2A8",
"|. c #BBB8B4",
" X c #B4AAA3",
".X c #C7AC85",
"XX c #CCB38B",
"oX c #D7B98B",
"OX c #D7BD96",
"+X c #C6AE95",
"@X c #E7BC84",
"#X c #C6B7A8",
"$X c #C9BEB4",
"%X c #C9B2B0",
"&X c #C1898F",
"*X c #DCC39C",
"=X c #DEC38A",
"-X c #EAC889",
";X c #F4D48C",
":X c #E8C698",
">X c #F4CA96",
",X c #EED191",
"<X c #F7DA98",
"1X c #FADD9B",
"2X c #F7D696",
"3X c #F0CA8D",
"4X c #FDE29D",
"5X c #D8C6A7",
"6X c #CDC4B9",
"7X c #D3C5B9",
"8X c #CCC9B1",
"9X c #E8CCA6",
"0X c #F3CEA1",
"qX c #EDD4AA",
"wX c #F4D4AC",
"eX c #FBD8A9",
"rX c #E8D6B6",
"tX c #F3D6B2",
"yX c #F6DAB5",
"uX c #FBDBB4",
"iX c #F8DDB9",
"pX c #E2CFB7",
"aX c #FEE4A1",
"sX c #FFEDA8",
"dX c #FCE2BD",
"fX c #FBE2BA",
"gX c #B6B9C5",
"hX c #BAC2CF",
"jX c #CBC9C7",
"kX c #D5CBC3",
"lX c #D9CEC6",
"zX c #DCD3C7",
"xX c #DAD9D9",
"cX c #E6DBC8",
"vX c #E3DCD4",
"bX c #F6DEC3",
"nX c #EBE3C4",
"mX c #FCE4C2",
"MX c #FDE9C5",
"NX c #F4ECCB",
"BX c #FEECCB",
"VX c #F4E5C4",
"CX c #FBF1CE",
"ZX c #F6ECD6",
"AX c #FCF3D3",
"SX c #FEFBDC",
"DX c #FBF6D6",
"FX c #EBE4DC",
"GX c #DAE0E6",
"HX c #E9E9E9",
"JX c #FEFAE6",
"KX c #FEFEFE",
"LX c #F7F9F8",
"PX c #EDF1F3",
"IX c #D4DAE3",
"UX c None",
/* pixels */
"UXUXUXUXUXUXUXUXUXUXUXUXUXUXUXUXUXUXUXUXUXUXUXUXUXUX~ ^.[.8X8XnXzX8X8X'.^.( UXUXUXUXUXUXUXUXUXUXUXUXUXUXUXUXUXUXUXUXUXUXUXUXUXUX",
"UXUXUXUXUXUXUXUXUXUXUXUXUXUXUXUXUXUXUXUXUXUX~ ].nXDXNXrX5X`.`.`.`.`.XX*XqXfXCXrX+X0.UXUXUXUXUXUXUXUXUXUXUXUXUXUXUXUXUXUXUXUXUXUX",
"UXUXUXUXUXUXUXUXUXUXUXUXUXUXUXUXUXUXUXR `.VXmXOXG.C.p.Z.[.].}.8X8X5X*X*X`.D.c.D.XX>X9XD.h UXUXUXUXUXUXUXUXUXUXUXUXUXUXUXUXUXUXUX",
"UXUXUXUXUXUXUXUXUXUXUXUXUXUXUXUXUX0.5XbX9XF.S.`.8XnXSXSXCXSXSXNXDXSXSXDXSXSXNX5X(.c.M.T.oXF.C UXUXUXUXUXUXUXUXUXUXUXUXUXUXUXUXUX",
"UXUXUXUXUXUXUXUXUXUXUXUXUXUXUXB OXmXoXL..XpXAXDXfXNXDXNXrXCXDXnXNXSXNXrXCXSXCXyXVXuX@XF.8.F.T.M.k UXUXUXUXUXUXUXUXUXUXUXUXUXUXUX",
"UXUXUXUXUXUXUXUXUXUXUXUXUXUXG.mXOXI.@XbXBXBXAXVXNXNXNXNXSXCXDXJXNXSXJXSXCXSXNXfXtXuX0X0XoXD.8.V.U.@.UXUXUXUXUXUXUXUXUXUXUXUXUXUX",
"UXUXUXUXUXUXUXUXUXUXUXUXB 5XqXU.R.eXmXuX9XbXZXmXCXDXNXNXSXCXDXSXDXSXSXDXSXDXNXDXVXuX:X@X@XoXW.M.8.F.b.0 UXUXUXUXUXUXUXUXUXUXUXUX",
"UXUXUXUXUXUXUXUXUXUXUX^ qXoXI.>XtX9X9XyXbXiXBXNXfXDXJXLXKXLXSXrXnXNXCXrXNXNXNXCXfXmXuXwX0XoXF.U.B.7.M.m.x UXUXUXUXUXUXUXUXUXUXUX",
"UXUXUXUXUXUXUXUXUXUXC.wXT.Y.qXtXOX9XqXwXbXbXbXVXNXKX|.~ p. XHXJXZXZXAXJXJXLXnXrXdXSXKXLXHXHX9XB.F.F.8.z.m.G UXUXUXUXUXUXUXUXUXUX",
"UXUXUXUXUXUXUXUXUXC.pXI.R.9XOX5X9XwXtXwXyXtXqXZXLXxX$Xx o.| 0.].7X6X#X'.}.zXKXJXLXLX'.q.4.q.jXcXF.m.m.8.9.m.S UXUXUXUXUXUXUXUXUX",
"UXUXUXUXUXUXUXUXw.9XF.R.5XXXoXOXOXOX9X:X0XmXLX}.V @.@.m ' k.>.D F G @.@.@.G ~ zXxXq.| =.j.=.: |.5Xb.b.b.8.5.m.C UXUXUXUXUXUXUXUX",
"UXUXUXUXUXUXUXK *XB.U.*XOXXXOX9XOXOXOX:XBXHX#Xe.2.c ..k.$.;.;.| @.b.j.j.l.l.#.V F ;.;.| | =.a /.ZXV.M.b.b.9.5.b.f UXUXUXUXUXUXUX",
"UXUXUXUXUXUX0 XXF.F.XX.XoXXXXXOXXXoXyXJXkXG.e.0.W S c ..:.:.O.@.k.;.;.;.;.;.j.@.N j. .} ;.;.M $XZXD.V.z.%.7.2.5.8.: UXUXUXUXUXUX",
"UXUXUXUXUXUXH.J.m.XXJ.J..X.XXXT..XbXHX_.t.S.M.d = M j.-.;.:.-.;.:.;.} D M o.*.n.D $.N O.:.k.s jXpXV.m.z.z.5.7.@.7.4.UXUXUXUXUXUX",
"UXUXUXUXUX! J.y.T.J.J.T.J.J.J..XVXjXF ' @.G i p 2.@.@.;.;.;.;.;.=.D ).xXxXZ.` k.9...;.+.k.O.! vXT.V.m.M.x.7.7.9.L 8.C UXUXUXUXUX",
"UXUXUXUX: H.r.D.D.S.D.J.J.K.F.rXxXd M ;.-.c D n.l.j.;.-.:.;.;.:.} {.KXKXKXLX0.o.9...;.;.+.p C.vXD.V.x.7.9.4.&.4.4.1.9.X UXUXUXUX",
"UXUXUXUX1.S.6.D.x.D.F.D.D.D.OXvXt.c j.k.M C n.o.} o.=.;.;.;.;.*.0.LXKXGXLXKX#Xs y.#.:.M , w.s.].6XM.M.x.z.5.6.&.5.@.6.S UXUXUXUX",
"UXUXUX9 M.2.c.M.e.c.M.D.x.J.HXH.r.C *.j.b %.} C. X/.' :.;.;.;.o.).KXA.  ( KXxX' $.$.:...d n e.r.#X$XM.x.z.z.7.&.5.&.K 6.: UXUXUX",
"UXUXUXA r.1.w.5.w.6.w.8.M.nX#Xr.s.c N } m $.A.LXKXKX'.} :.;.:.} kXGX0.] % jXHX .k.$.:.-.L C.v e.c.7X[.x.v.6.&.5.5.4.K 6.Z UXUXUX",
"UXUX. 1.@.! D 1.5.5.6.9.`.zXw.s.b _.zXA.L } jXKX Xi.xX2.=.:.;.' vXjX_./   jXxX' k.k.;.-.s {._.N s.C.lXD.b.v.x.z.&.P P ! 5.. UXUX",
"UXUX0 0.F W D L @.1.L 6.vXH.e.2.2.LXKXjX .| IXLXa.; ).Z.=.j.:.} xXPXw   g HX].} ;.;.;.$.` A.KXG 2.r.+X%Xz.6.6.^ &.&.&.J 6.f UXUX",
"UXUXh D V C F F F F D G.7Xw.e.p kXKXKX|.L o.jXLXi.o /.0.`  .' ' S.PX).1 ).GX@.;.;.;.;.;.` i.KX7Xv e.e.jXD.7.5.z.7.6.&.P ^ ! UXUX",
"UX. C C x x m C C C H lX(.r.] p.KXKXKXjX@.O._.LXjXr d.n t t 7 r s V.oX@X:XV.O.;.;.;.;.$.s ^.KXKXt.@.r.+X}.z.z.6.&.P P I ! 4.X UX",
"UXX C f d q x f x l 0.zXw.e.v lXKXKXLXjXS *.5.6X).t.] 6 6 6 6 u G ;X1X1X<X;XU.;.;.;.| M 2 A.LXKX6Xv e.S.kXc.z.5.6.&.! I Z 6.g UX",
"UX9 x 0 d d x x x 1 G.$Xw.3.d.LXKX|.q.2.} M.qX4XF.% 8 6 5 6 >   m.4X-X,X4X,X<XI.*.;.O...' s Z jXKXG 3.w.8XG.5.5.5.&.L P Z 1.Z UX",
"UX0 g g d d 0 d q 0 #X(.w.N _.KX{.N j.=.b.qX4X;X4XP % 8 5 > % G 2X1X,X,X<X,X<XY.O.;.;.k.$.X.} c HXG.G w.+X].9.4.@.L K I J K I UX",
"o 9 0 0 w d g q 0 q 6XS.w.v 6XHXC j.;.*.F.aX;X;X1X1X7.- = * 5.;X4X-X,X-X,X;X~.k.;.;.;.;.O.....a ^.7Xz w.G.#X@.&.! @.J m Z Z 1.X ",
". 0 0 0 < 0 0 d q B lXe.w.b PX).| k.;.*.V.4X-X;X-X4XsXW.K.-X4X4X2X<X1X4X;XR.' O.k.;.;.;.O.+.c E E lXb w.S.6X&.S J Z Z V Z V P k ",
"X , 0 0 w 0 q d 1 A lXw.3.G KXi.f >.;.;.-.W.4X4X4X1X4X-X-X4X<X<X1X1X2XY.y.4 a k.;.;.;.;.k.+.} i.xXvXG t.e.kX! m Z Z V V J C J V ",
": , 9 0 w w 1 w : W 7Xw.2.2.xX/.! j.;.;.;.-.N.E.-X~.~.W.`.-X-X-X~.R.#._ # 4 O.k.;.;.;.k.O.+.j.M jXKXG 3.r.kX! C f f V V Z V m J ",
"9 , , < < < 1 < : E $X] 2.H B u c b.:.;.;.;.*.X.@.8XcXxXhXxXjXzXFX/.$ # 4 n k.;.;.;.;.;.+...v v 9 B z 3.@.$XI g f V V V V Z V J ",
"O , , 0 1 w q w 2 H 7XN ] ; ; 8 9 F :.;.;.;.:.:.o.hXKXLXIXKXKXKXLXd._ 4 4 +.;.;.k.;.;.O.O.M * * > & 7 G D kXA g f f f V J V V ^ ",
"9 , 0 w q q q q 1 l 7X] H * ; * Y i.%.:.;.;.;.;.*.A.LXKXPXKXKXKXhX# _ # { j.;.;.;.;.;.X.#.2 5 5 > > p N @.6Xf k f f V V J Z m I ",
"9 < , 1 q r > q , 2 $Xd.* 6 6 > % 9 F k.;.;.;.;.:.n gXKXKXKXKXPXQ $ # y -.;.;.;.;.;.-.$.c - 6 6 6 ; t N w.|.g 0 k f j V I Z Z I ",
". 0 0 , w q q q , - ].p.; 6 5 > % r ( @.k.;.;.;.:.' U IXKXKXLX&X) <._ ..k.;.;.;.;.;.X.N = 2 5 > > ; z n S.].: g f f V Z I Z I J ",
". , q w > 1 r r q - a.].% 6 7 5 ; ; }.~ ;.:.;.;.:.' ) g.&X_.s.f.f.<.#.;.;.;.;.:.;.$.M , 5 - > 5 5 5 v v ].A.: g f j J J P C 4.j ",
"@ 9 q 2 1 q > q 1 2 H 6X, 6 6 > - &  XvXF ;.;.;.=...h.f.H.%Xg.f.,.| k.;.;.;.;.;.O.a : r 6 > 5 6 6 7 N n 7XE g f f V J P ^ S v.k ",
"UX: r w q q r r l 1 , %XW & 6 6 ; & R HXjXF $.k.:.j.*.[ {.jX).[ +.k.O.;.;.k.;. .l ^.~ 7 6 5 > 5 5 p b r.$Xg k f V Z J P &.K v.UX",
"UX= q q 7 l l 7 1 1 ; p.}.% 6 6 5 - a 2.PXHX~ M ;.j.;.-.+.o.o.k.k.=.k.k.j.| p : g /.B t 6 5 - > > v a ].Z.0 f f V J Z P P P 6.UX",
"UXX q l q q q r l q 1 l 7XE - ; * N l.o.Z.'.Z p l | -.;.O.+.k.O.=.k.$. .s i ' O.*.s 1 * ; > 2 > p v ] 7XA f f f x Z I 4.K 6.J UX",
"UXUX0 r r r r r c r r w p.$Xl , | k.;.j.| a j.M &.j.O.=.k.=.j.j.;.;.O.O.;.j.j.;.;.j.;.b = 7 6 > v p #XG.d f x V V J P P Z c.UXUX",
"UXUX: z l r r r l r r r 5 %X(.; M k.;.;.;.O.o.V l.O.k.j.k.O.+.j.O.k.;.k.;.;.;.;.;.;.k.j.} : 3 a p S.7XC c g f V V Z P K L v.UXUX",
"UXUXO r b r r r v t r z r H zX2.1 =.k.;.=.j.c 8.j.j.j.O.$.V.L.L.V.;.O.;.;.;.;.;.;.k.j.=.j.M : v ] cXe.D m B f f V Z I N 6.J UXUX",
"UXUXUXw b b t z z z b n z 7 t.zXc | ;.;.j.+.C l.O.j.O.K.,X4X4X4X4X,XU.O.;.j.k.k.$.....+.O.j.p p $X.X#.D x x V m m J S S v.UXUXUX",
"UXUXUX9 z ' z v v y z n z z 7 (.'.3 ;.j.j.N %.k.j.+.U.4X1X<X<X<X2X4XaXU.+.N p i S @.%.%.-.k.o.( pX>.#.] m f f f V Z S 4.^ UXUXUX",
"UXUXUXUXq ] n v n b b n z n v b zX~ 3  .c 2 $.k.j.n.4X4X<X<X<X<X<X2XaXW.* > 5 , k.j.j.=.;.;.=.q.5X#.@.G H B d g V S S v.UXUXUXUX",
"UXUXUXUX9 n #.n n n { { n ' n t 3.zX_.F 7 p p ' X.U.sX1X1X2X<X1X<X4X,Xx 5 6 5 1 j.k.=.;.;.;.=.q.5X>.#.H x m x f m D 4.A UXUXUXUX",
"UXUXUXUXUXw [ 9.{ { ] ' ] { { ' { @.(.7X$Xw.p 5 8 @.W.,X4X4XaXaX4XsXJ.2 5 5 5 * } k.k.;.k.=.a  X.X>.#.G c c x f L L ^ UXUXUXUXUX",
"UXUXUXUXUXe z u.#.' [ [ [ [ [ [ [ [ { ' H.lX#Xr.n 8 & p @.9.m.B.B.m.G > 2 = % - d f N M v B ).rXy.#.#.] x x d D @.4.e UXUXUXUXUX",
"UXUXUXUXUXUX9 N P.3.#.[ [ [ #.o.[ #.[ #.[ #.T.7X7X].p.G t 5 & & 3 3 8 p v D e.#XvXlXkX7X6XvXyXL.y.9.@.D H B L 9.P j UXUXUXUXUXUX",
"UXUXUXUXUXUXUX9 #.!.3.>.>.*.>.#.>.>.#.>.#.#.>.P.R.0XbXcXzX%X%X+X(.(.+X$XlXZXLXJXBXfX0X>X>XR.I.I.n.#.9.] N D b.L j UXUXUXUXUXUXUX",
"UXUXUXUXUXUXUXUXq y.R.u.u.P.u.u.u.>.>.u.u.u.P.L.L.Y.Q.>XeXBXDXZXJXJXJXJXDXAXmXiXeXeX>X@X@XE.L.L.N.y.9.[ 2.V.L j UXUXUXUXUXUXUXUX",
"UXUXUXUXUXUXUXUXUXw u.@Xu.P.P.u.P.u.P.P.N.P.P.L.Y.Y.@X@X>X>XtXtXyXVXmXiXyXmXtXiXwX0XeXQ.@XE.Y.L.N.n.y.8.I.] f UXUXUXUXUXUXUXUXUX",
"UXUXUXUXUXUXUXUXUXUXw P.@XT.P.!.!.!.!.P.!.Y.I.Y.Q.R.@X3X@XeXuXwXwXiXyXiXyXtXtXiXiX:X2X3XE.Q.R.U.L.m.F.U.@.g UXUXUXUXUXUXUXUXUXUX",
"UXUXUXUXUXUXUXUXUXUXUX9 u.@XoXP.Y.Q.Y.Y.Y.R.Y.@X@X@X>X>X0XuXiXeXuXmXwXiXmXtXwXtXmX0X>X0XQ.Q.Q.Y.N.T.I.D + UXUXUXUXUXUXUXUXUXUXUX",
"UXUXUXUXUXUXUXUXUXUXUXUXw #.@X9X.XY.Q.@XQ.@XQ.@X@X@X>X>X0XuXiXuXtXmXtXuXmXtXtXwXuX0X>XeX>X@XU.T.@XI.m e UXUXUXUXUXUXUXUXUXUXUXUX",
"UXUXUXUXUXUXUXUXUXUXUXUXUXe B !.eX5XT.R.@X>X>X@X3X0XeX>X0XuXiXuXwXiXyXwXiXtXiXiXtXuXuXeX@XT.oX-Xb.0 Y UXUXUXUXUXUXUXUXUXUXUXUXUX",
"UXUXUXUXUXUXUXUXUXUXUXUXUXUXT O @.@XeX9X.XoX-XeXuXuXuXwXwXiXmXyXtXyXVXyXuXiXBXBXmXqXXXT.OX>XR.D O UXUXUXUXUXUXUXUXUXUXUXUXUXUXUX",
"UXUXUXUXUXUXUXUXUXUXUXUXUXUXUXUXY 9 #.Q.eXtXOX.XXXOX9XiXbXmXBXMXBXBXmXmXfXrX5XXXT.XX0XuX@X9.9 Y UXUXUXUXUXUXUXUXUXUXUXUXUXUXUXUX",
"UXUXUXUXUXUXUXUXUXUXUXUXUXUXUXUXUXUXY O G I.:XuXeX9XoX.X.X.X.X.X.X.X.XT.J..XoXwXMXfXoX! 9 Y UXUXUXUXUXUXUXUXUXUXUXUXUXUXUXUXUXUX",
"UXUXUXUXUXUXUXUXUXUXUXUXUXUXUXUXUXUXUXUXT + O F B.@XuXdXMXfXfXuXfXfXdXBXAXBXfX+Xq.e + / UXUXUXUXUXUXUXUXUXUXUXUXUXUXUXUXUXUXUXUX",
"UXUXUXUXUXUXUXUXUXUXUXUXUXUXUXUXUXUXUXUXUXUXUX/ Y O e h ! C.H.`.`.G.Z.( R e + Y / UXUXUXUXUXUXUXUXUXUXUXUXUXUXUXUXUXUXUXUXUXUXUX",
"UXUXUXUXUXUXUXUXUXUXUXUXUXUXUXUXUXUXUXUXUXUXUXUXUXUXUX( / / T T T T / / ( UXUXUXUXUXUXUXUXUXUXUXUXUXUXUXUXUXUXUXUXUXUXUXUXUXUXUX",
"UXUXUXUXUXUXUXUXUXUXUXUXUXUXUXUXUXUXUXUXUXUXUXUXUXUXUXUXUXUXUXUXUXUXUXUXUXUXUXUXUXUXUXUXUXUXUXUXUXUXUXUXUXUXUXUXUXUXUXUXUXUXUXUX"
};
