/* XPM */
static char *bitcoin__[] = {
/* columns rows colors chars-per-pixel */
"16 16 209 2",
"   c #362315",
".  c #3C2E1D",
"X  c #592B11",
"o  c #47301C",
"O  c #49311B",
"+  c #4B351F",
"@  c #4E361F",
"#  c #52361D",
"$  c #57371C",
"%  c #5D381C",
"&  c #633916",
"*  c #6B3D1C",
"=  c #463520",
"-  c #473C23",
";  c #4F3F25",
":  c #583F22",
">  c #613A21",
",  c #673E24",
"<  c #6A431B",
"1  c #534428",
"2  c #554A2B",
"3  c #584B2B",
"4  c #594731",
"5  c #5E5130",
"6  c #664022",
"7  c #6B4022",
"8  c #6E4220",
"9  c #67452A",
"0  c #614A29",
"q  c #714927",
"w  c #764D2C",
"e  c #63532F",
"r  c #66502E",
"t  c #7F5723",
"y  c #77562F",
"u  c #6A5331",
"i  c #6D5631",
"p  c #6B5536",
"a  c #665831",
"s  c #665833",
"d  c #6B5F37",
"f  c #6A593A",
"g  c #745731",
"h  c #785634",
"j  c #765C37",
"k  c #795932",
"l  c #725039",
"z  c #72563E",
"x  c #73593A",
"c  c #7D593E",
"v  c #6D6038",
"b  c #736038",
"n  c #746338",
"m  c #7E6B3B",
"M  c #7B5E4A",
"N  c #76654C",
"B  c #7D6149",
"V  c #7B6549",
"C  c #7F6B4F",
"Z  c #7C6D56",
"A  c #805A22",
"S  c #8A582B",
"D  c #8B6323",
"F  c #8A6325",
"G  c #976425",
"H  c #956E2D",
"J  c #986E28",
"K  c #9C7025",
"L  c #9E732B",
"P  c #98712D",
"I  c #9E732C",
"U  c #8A6231",
"Y  c #8E6931",
"T  c #906A30",
"R  c #9B6738",
"E  c #9C6538",
"W  c #947036",
"Q  c #967236",
"!  c #9D7531",
"~  c #9D7931",
"^  c #997539",
"/  c #A27425",
"(  c #AA6531",
")  c #A46E3B",
"_  c #A47C32",
"`  c #A47D33",
"'  c #A47D34",
"]  c #A67E36",
"[  c #A97E33",
"{  c #955251",
"}  c #826E41",
"|  c #82654E",
" . c #81684E",
".. c #936B47",
"X. c #877442",
"o. c #88714E",
"O. c #907045",
"+. c #937546",
"@. c #997347",
"#. c #907B47",
"$. c #9A7D47",
"%. c #90704E",
"&. c #90764E",
"*. c #9B764D",
"=. c #997A49",
"-. c #99794B",
";. c #9F7F4C",
":. c #806B51",
">. c #866B51",
",. c #806C50",
"<. c #856F53",
"1. c #8C6D51",
"2. c #86745A",
"3. c #9A7755",
"4. c #927A5C",
"5. c #9B7B59",
"6. c #9A7C5D",
"7. c #977F6A",
"8. c #937F76",
"9. c #9C8257",
"0. c #9B895C",
"q. c #A4834D",
"w. c #BB864A",
"e. c #B9934D",
"r. c #A28252",
"t. c #A8875B",
"y. c #A4895A",
"u. c #A78D5B",
"i. c #B58951",
"p. c #9F8863",
"a. c #99806B",
"s. c #AB8A61",
"d. c #A88C60",
"f. c #AE9366",
"g. c #AA926F",
"h. c #B99A67",
"j. c #B7996A",
"k. c #A38E78",
"l. c #A79277",
"z. c #AC9077",
"x. c #AF9873",
"c. c #A9917E",
"v. c #B39D72",
"b. c #B09975",
"n. c #BAA27B",
"m. c #BBA07D",
"M. c #C29157",
"N. c #CC975A",
"B. c #CBA55D",
"V. c #C2877E",
"C. c #C0A371",
"Z. c #C6A677",
"A. c #CBAC7D",
"S. c #CDB178",
"D. c #DBB17C",
"F. c #DDB47D",
"G. c #DFB57C",
"H. c #DEBE7C",
"J. c #E7C57F",
"K. c #A89E84",
"L. c #B09682",
"P. c #B29A87",
"I. c #BAA382",
"U. c #B3A688",
"Y. c #B2A38E",
"T. c #B7A78F",
"R. c #B9A58C",
"E. c #BBA98B",
"W. c #BDAA8A",
"Q. c #B6ACA4",
"!. c #BCB1A6",
"~. c #C3AE8C",
"^. c #CDB68B",
"/. c #DEB582",
"(. c #D8B486",
"). c #CBB594",
"_. c #CCBD9D",
"`. c #CFBD9F",
"'. c #E0BF9D",
"]. c #D9C19C",
"[. c #E6C986",
"{. c #F3C78D",
"}. c #E5CE97",
"|. c #E1C198",
" X c #E9C89B",
".X c #F6DA94",
"XX c #FAD09C",
"oX c #C9C2A6",
"OX c #D9C4A1",
"+X c #D3CAAC",
"@X c #CCC0B5",
"#X c #E0C9AC",
"$X c #E5D2A0",
"%X c #F2D4AC",
"&X c #FFDCAF",
"*X c #F9D8B1",
"=X c #FEDCB3",
"-X c #FADDB5",
";X c #FDE1BC",
":X c #FFE3BE",
">X c #F3DFC4",
",X c #F4E0C2",
"<X c #FDE6C3",
"1X c #FAF7DC",
"2X c #FFFBDA",
"3X c #FFFADC",
"4X c #FEFBDD",
"5X c #F6F1F7",
"6X c None",
/* pixels */
"6X6X6X6X6XZ K.oX+XU.Z 6X6X6X6X6X",
"6X6X6XV |.<X3X1X3X2X-XZ.r 6X6X6X",
"6X6X<. X%X>XT.x.~._.`.n.h.i 6X6X",
"6X4 A.^.).6.A K q.r.D q.v.$.; 6X",
"6X&.y.I.O.+.f.] Q.!.H %.b.#.} 6X",
". j o.z.@XY.8.U k.g.L l.L.0.X.- ",
"= :  .P.E.S.*.* [.J.I 9.c.p.m 5 ",
"+ # >.a.Q B.}.$X(.E [ Q 7.4.e s ",
"O $ M > k / R.5X{ G _ < , :.3 d ",
"O % M , M u.) V.( ~ g X w V s v ",
"  , 9 | T -.H ] _ ! Y & 1.f n 2 ",
"6Xq < c -.F e..XH.t J ^ 5.0 b 6X",
"6XO E S ..3.s.C.t.l u.j.@.g 1 6X",
"6X6Xh N.w.M./.'.#X,X*XF.i.u 6X6X",
"6X6X6Xx /.{.XX=X:X:X&XF.p 6X6X6X",
"6X6X6X6X6X<.v.].OXW.2.6X6X6X6X6X"
};
