/* XPM */
static char *bitcoin__[] = {
/* columns rows colors chars-per-pixel */
"32 32 256 2",
"   c #3A2A1A",
".  c #701612",
"X  c #6E1519",
"o  c #5A2B0E",
"O  c #56280D",
"+  c #422E1A",
"@  c #592C12",
"#  c #48331E",
"$  c #5D3114",
"%  c #57331A",
"&  c #56391E",
"*  c #5B391D",
"=  c #57351A",
"-  c #633213",
";  c #643915",
":  c #623D1C",
">  c #683B1D",
",  c #79311E",
"<  c #483925",
"1  c #563A22",
"2  c #5B3C22",
"3  c #613D22",
"4  c #633E2B",
"5  c #69441D",
"6  c #554526",
"7  c #53452A",
"8  c #5D4429",
"9  c #5C4B2C",
"0  c #5A4225",
"q  c #594633",
"w  c #4D4628",
"e  c #654023",
"r  c #6B4323",
"t  c #644B2C",
"y  c #6B4B2A",
"u  c #61442E",
"i  c #734824",
"p  c #714A2D",
"a  c #754926",
"s  c #61512D",
"d  c #77522F",
"f  c #7D5229",
"g  c #795624",
"h  c #624C31",
"j  c #6C4D38",
"k  c #704E37",
"l  c #645431",
"z  c #6A5132",
"x  c #665933",
"c  c #6A5B35",
"v  c #7B5534",
"b  c #71523C",
"n  c #7A5E39",
"m  c #765B37",
"M  c #6F6239",
"N  c #73653B",
"B  c #7A643B",
"V  c #7D6C3E",
"C  c #776639",
"Z  c #6F5B52",
"A  c #725E45",
"S  c #7A6842",
"D  c #7A6C55",
"F  c #7C735D",
"G  c #7B6B66",
"H  c #C03A36",
"J  c #93681D",
"K  c #815C23",
"L  c #8A562A",
"P  c #914D34",
"I  c #845D33",
"U  c #8E5D30",
"Y  c #925F31",
"T  c #B75C34",
"R  c #8F692D",
"E  c #8A6429",
"W  c #956A24",
"Q  c #936C2B",
"!  c #986C2B",
"~  c #9B722D",
"^  c #9E7125",
"/  c #846536",
"(  c #8E6A32",
")  c #8A653D",
"_  c #86683B",
"`  c #926F35",
"'  c #916639",
"]  c #9D7532",
"[  c #94723C",
"{  c #9A7639",
"}  c #A1762D",
"|  c #A4792E",
" . c #A07223",
".. c #A16F39",
"X. c #A57B33",
"o. c #A97E34",
"O. c #AB753E",
"+. c #A37437",
"@. c #8B6444",
"#. c #826C42",
"$. c #8B6E44",
"%. c #8D6A4A",
"&. c #836948",
"*. c #956D49",
"=. c #847143",
"-. c #8B7343",
";. c #8B754A",
":. c #937647",
">. c #947649",
",. c #937C49",
"<. c #9E7C4B",
"1. c #9B7841",
"2. c #8D6D53",
"3. c #876B52",
"4. c #8F7550",
"5. c #8A745D",
"6. c #867253",
"7. c #977857",
"8. c #A67240",
"9. c #AA7F51",
"0. c #816B61",
"q. c #877668",
"w. c #9A7F67",
"e. c #9C747B",
"r. c #BE6F67",
"t. c #A17E64",
"y. c #AD7674",
"u. c #A78035",
"i. c #AB8035",
"p. c #AA8139",
"a. c #94804B",
"s. c #9A815A",
"d. c #AF8741",
"f. c #A3844D",
"g. c #AE8049",
"h. c #A48857",
"j. c #BB8C54",
"k. c #B18A55",
"l. c #B48E4E",
"z. c #9C886B",
"x. c #9B8768",
"c. c #8D8376",
"v. c #9C8A74",
"b. c #9A8473",
"n. c #9F927A",
"m. c #AC8E61",
"M. c #A3886F",
"N. c #A7866D",
"B. c #AB926A",
"V. c #B39461",
"C. c #B4986A",
"Z. c #A48E7C",
"A. c #A98D75",
"S. c #AD947B",
"D. c #AA9575",
"F. c #B69A76",
"G. c #BCA274",
"H. c #C59255",
"J. c #CB9B5E",
"K. c #C59F6A",
"L. c #C8A562",
"P. c #D3A66C",
"I. c #D0A367",
"U. c #CBA876",
"Y. c #DFAE72",
"T. c #CFB074",
"R. c #D8B275",
"E. c #E1B378",
"W. c #E3C37E",
"Q. c #9C9081",
"!. c #958581",
"~. c #AD9A84",
"^. c #AE9680",
"/. c #B69B84",
"(. c #B09E88",
"). c #B49094",
"_. c #A59C99",
"`. c #B9A68C",
"'. c #B9A687",
"]. c #AAA198",
"[. c #BEAD93",
"{. c #BBA896",
"}. c #BEB094",
"|. c #BFAFA0",
" X c #BDB9B4",
".X c #C5AC86",
"XX c #CCB38A",
"oX c #DAB686",
"OX c #C1AC98",
"+X c #CDBA9A",
"@X c #C4B49B",
"#X c #D9BC93",
"$X c #D6BE99",
"%X c #EABD84",
"&X c #E2BC89",
"*X c #C7BBA3",
"=X c #C3B8AE",
"-X c #C7B7A6",
";X c #DCABB0",
":X c #C5BDB6",
">X c #DAC099",
",X c #E4C687",
"<X c #F0C58F",
"1X c #EFD08B",
"2X c #EBC593",
"3X c #E4C59C",
"4X c #EACA9D",
"5X c #E9CE94",
"6X c #F5CB99",
"7X c #EBD193",
"8X c #FADE9A",
"9X c #F5D595",
"0X c #FEE19E",
"qX c #CDC1AE",
"wX c #D8C7AC",
"eX c #D7CBBB",
"rX c #D8C8B2",
"tX c #D5CDB9",
"yX c #EACBA3",
"uX c #E5CCA7",
"iX c #EDD1AB",
"pX c #F5D4AB",
"aX c #FBD7AD",
"sX c #F9D5A8",
"dX c #E0CEB9",
"fX c #EED7B3",
"gX c #E6DBB9",
"hX c #F5DAB5",
"jX c #F9DAB5",
"kX c #F6D9B5",
"lX c #FFE7A3",
"zX c #EEE3BF",
"xX c #FCE1BD",
"cX c #D3CDC8",
"vX c #D5D2CC",
"bX c #DAD9DC",
"nX c #E3D8C5",
"mX c #F0DFC1",
"MX c #E2D0D7",
"NX c #FBE3C2",
"BX c #F4ECC9",
"VX c #FBEACA",
"CX c #FAE7C7",
"ZX c #FAF2CE",
"AX c #F8EDD0",
"SX c #FAF4D3",
"DX c #FEF9D6",
"FX c #FAF6DA",
"GX c #DBE2E7",
"HX c #E8E6E5",
"JX c #F2EEE1",
"KX c #FBF7E8",
"LX c #EFF2F6",
"PX c #FEFFFF",
"IX c #F6F9FC",
"UX c None",
/* pixels */
"UXUXUXUXUXUXUXUXUXUXUXUXUXc.].@XqX}.n.F UXUXUXUXUXUXUXUXUXUXUXUX",
"UXUXUXUXUXUXUXUXUXD .X$X}.rXgXgXgXzXgX}..XG.S UXUXUXUXUXUXUXUXUX",
"UXUXUXUXUXUXUXUX.X4XiXmXBXSXSXSXDXDXDXBXiXoXP.h.h UXUXUXUXUXUXUX",
"UXUXUXUXUXUXx.2X2XjXmXAXZXSXKXDXZXDXDXBXNXaX5XC.V._ UXUXUXUXUXUX",
"UXUXUXUXUXF.&X3XyXpXkXCXKX].x.-XdXtXnXJXKXeX}.qXV.f.:.UXUXUXUXUX",
"UXUXUXUXB.oX$X$X$X4XmXrX5./ W ( $.[ [ S.(.` W z.+Xf.9.:.UXUXUXUX",
"UXUXUX6.U.U.XXXX$XnX{.4.y Q i.] X.~ ~ ! E R ^ B.wXa.,.>.B UXUXUX",
"UXUX< C.C.G.G.XX-X>.I d R ] o.| 1.vXcX` { ] Q ~..Xf.,.-.>.7 UXUX",
"UXUX6.h.m.m.B.rX3.J E [ h.+.o.~ {.cXGX}.] ~ y N.OXh.,.=._ =.UXUX",
"UX< %.$.>.>.'./.%.s.g  XMXS.| ] vXF G qX! | ;.2.D.'.a.,.=.S 9 UX",
"UXh N m n >.-X@.|.IX[ vXq.q.~ Q qXZ e.D.| | s.=X) {.m.;.=.S V UX",
"UXz t h t M.N.5.PXLX` [.!.p 3 $ >.4X,Xd.X.W S IXA.t.(.a.,.V S UX",
"  8 8 8 6 ~.*.-XvXs.f.5Xm.o o O T.7X0XW.X.Q K D.=X%.`.a._ C N w ",
"  1 2 1 8 S.%.:X:. .T.8X9XV.#.T.lX8X1Xl.X.o.} i Q.%.~.;.C M M x ",
"< 1 1 & h S.%.]./ o.l.W.9X1X7X0X9XK.P E o.o.} / :X4./.6.s x x M ",
"# 1 1 & h M.v 4 n i.|  .F.HXbXJX:XX , o.o.o.` 5 u d S.D 6 s x x ",
"# 1 2 * 8 x.> @ q [ i.| [ GXPXPXe.. ! o.o.X.g $ @ 5 M.A 7 l c M ",
"+ * * 2 & e.- - % 5.| i.W y.MX;XH P o.o.X.K @ $ $ i z.q 7 x N M ",
"  2 * 3 % 5.k - O _.D.X.o.T ).r.T u.i.~ #.k - $ ; I b.6 s N =.x ",
"UX2 3 3 & b M.o $ _  X&.R X.{ ] u.X.E g #.k $ % ; w.D 7 x C =.w ",
"UX1 3 3 r * w.A E i.! E ` o.] } ~ | ] X.o.Q : $ d ~.t 9 x N =.UX",
"UX  a r r 3 p Z.C o.X.( u.p.L.T.L.p.o.o.] X.~ 5 S.7.t t x B N UX",
"UXUXa a r a 5 @.v.E g R i.W.0XsXlX1Xg 0 ` ] u.1..XI z 9 l #.UXUX",
"UXUX+ ' f f L i 7.Z.3.i E ,X0XlXlXG.O O W | ^ s.F.I t 9 n x UXUX",
"UXUXUXp O.Y U Y L Y S./.w.v @.8.<.r - A x.B.x.[.l.U t m _ UXUXUX",
"UXUXUXUX*.j.O.O.O.O...j.&X$XuX-X@XrXnXAXCXpX2XI.9.) @.-.UXUXUXUX",
"UXUXUXUXUX9.P.H.H.H.H.K.I.%X6XjXCXCXNXkXpX<XE.P.j.k.1.UXUXUXUXUX",
"UXUXUXUXUXUX:.%XE.Y.Y.E.%X<XsXjXjXjXkXkXaX6X%XR.P.$.UXUXUXUXUXUX",
"UXUXUXUXUXUXUXz U.2X2X<X6XsXaXxXjXkXjXNXpXyX2XU.z UXUXUXUXUXUXUX",
"UXUXUXUXUXUXUXUXUXS U.yX4XfXhXkXfXkXfXuXiX#X>.UXUXUXUXUXUXUXUXUX",
"UXUXUXUXUXUXUXUXUXUXUXUX&.D.XX$X>X+X`.q.UXUXUXUXUXUXUXUXUXUXUXUX",
"UXUXUXUXUXUXUXUXUXUXUXUXUXUXUXUXUXUXUXUXUXUXUXUXUXUXUXUXUXUXUXUX"
};
